<?xml version="1.0" standalone="no"?>
<!DOCTYPE svg PUBLIC "-//W3C//DTD SVG 20010904//EN"
 "http://www.w3.org/TR/2001/REC-SVG-20010904/DTD/svg10.dtd">
<svg version="1.0" xmlns="http://www.w3.org/2000/svg"
 width="1280.000000pt" height="1280.000000pt" viewBox="0 0 1280.000000 1280.000000"
 preserveAspectRatio="xMidYMid meet">
<metadata>
Created by potrace 1.15, written by Peter Selinger 2001-2017
</metadata>
<g transform="translate(0.000000,1280.000000) scale(0.100000,-0.100000)"
fill="#ffffff" stroke="none">
<path d="M3454 9109 c-1512 -1238 -2771 -2271 -2799 -2295 l-50 -43 115 -1
c218 -2 1651 -37 1654 -41 2 -2 9 -431 15 -954 6 -522 16 -1272 21 -1665 5
-393 14 -1079 20 -1525 5 -445 12 -956 16 -1133 l6 -324 1662 7 c913 4 2634
10 3823 14 1189 3 2163 8 2165 11 2 3 0 698 -3 1545 -4 847 -7 2091 -8 2765
l-2 1225 243 6 c134 4 475 12 758 18 283 6 586 14 672 17 l157 6 -157 127
c-86 70 -1340 1083 -2787 2251 -1447 1168 -2662 2150 -2701 2181 l-72 59
-2748 -2251z"/>
</g>
</svg>
