<?xml version="1.0" encoding="UTF-8" standalone="no"?>
<svg
   version="1.0"
   width="30.00004pt"
   height="28.251909pt"
   viewBox="0 0 30.00004 28.251909"
   preserveAspectRatio="xMidYMid"
   id="svg10"
   sodipodi:docname="home.svg"
   inkscape:version="1.2 (dc2aedaf03, 2022-05-15)"
   xmlns:inkscape="http://www.inkscape.org/namespaces/inkscape"
   xmlns:sodipodi="http://sodipodi.sourceforge.net/DTD/sodipodi-0.dtd"
   xmlns="http://www.w3.org/2000/svg"
   xmlns:svg="http://www.w3.org/2000/svg">
  <defs
     id="defs14" />
  <sodipodi:namedview
     id="namedview12"
     pagecolor="#ffffff"
     bordercolor="#000000"
     borderopacity="0.25"
     inkscape:showpageshadow="2"
     inkscape:pageopacity="0.0"
     inkscape:pagecheckerboard="0"
     inkscape:deskcolor="#d1d1d1"
     inkscape:document-units="pt"
     showgrid="false"
     inkscape:zoom="0.40360697"
     inkscape:cx="853.55316"
     inkscape:cy="607.02619"
     inkscape:window-width="1600"
     inkscape:window-height="829"
     inkscape:window-x="-8"
     inkscape:window-y="-8"
     inkscape:window-maximized="1"
     inkscape:current-layer="svg10" />
  <metadata
     id="metadata2">
Created by potrace 1.15, written by Peter Selinger 2001-2017
</metadata>
  <g
     transform="matrix(0.00234357,0,0,-0.00234357,0,28.251736)"
     fill="#ffffff"
     stroke="none"
     id="g8">
    <path
       d="M 5828,11600 C 5546,11350 4410,10344 3305,9365 2199,8387 1140,7448 950,7280 760,7112 490,6873 350,6750 210,6626 74,6505 48,6480 L 0,6435 330,6065 c 181,-203 336,-369 343,-369 8,1 603,521 1323,1156 3778,3332 4388,3868 4395,3866 4,-2 470,-413 1036,-914 565,-501 1842,-1631 2836,-2512 994,-881 1812,-1602 1817,-1602 5,0 12,5 15,10 5,8 11,7 21,-1 19,-15 -10,-45 339,351 153,173 293,331 312,351 l 34,36 -838,739 c -461,407 -1544,1363 -2408,2124 -863,762 -1919,1693 -2347,2070 l -776,685 h -45 -45 z"
       id="path4" />
    <path
       d="M 5707,9301 C 5343,8979 4337,8088 3472,7322 l -1572,-1393 2,-2872 3,-2872 22,-41 c 12,-23 41,-58 64,-77 83,-72 -24,-67 1561,-67 h 1428 l 2,1273 c 3,1266 3,1272 24,1317 26,58 76,108 134,134 45,21 52,21 1224,24 1304,3 1248,5 1322,-60 52,-46 81,-97 93,-163 8,-40 11,-454 11,-1292 V 0 l 1484,2 1485,3 30,29 c 17,16 45,63 63,105 l 33,76 2,2860 2,2860 -2240,1975 C 7379,9030 6400,9886 6389,9886 c -13,1 -247,-200 -682,-585 z"
       id="path6" />
  </g>
</svg>
