<svg width="34" height="34" viewBox="0 0 34 34" fill="none" xmlns="http://www.w3.org/2000/svg">
<g id="maps 1" clip-path="url(#clip0_22_521)">
<g id="Group" filter="url(#filter0_d_22_521)">
<path id="Vector" d="M33.536 31.1172V6.358C33.536 5.02773 32.4144 3.89879 31.0798 3.89879H24.127C23.8993 1.71128 22.043 0 19.7938 0C17.5447 0 15.6884 1.71128 15.4606 3.89879H2.45625C1.12012 3.89879 0 5.01927 0 6.358V31.1172C0 32.4732 1.10184 33.5764 2.45625 33.5764H31.0798C32.1245 33.5764 33.536 32.5927 33.536 31.1172ZM23.1406 21.3502L32.5535 11.6194V30.7744L23.1406 21.3502ZM19.7938 0.983682C21.6544 0.983682 23.1682 2.49475 23.1682 4.35214C23.1682 5.67775 22.6437 7.53809 21.7996 9.2072C20.9302 10.9261 20.1033 11.6993 19.7938 11.6993C19.4978 11.6993 18.6848 10.9977 17.7629 9.11506C16.9468 7.44851 16.4194 5.57892 16.4194 4.35214C16.4195 2.49475 17.9332 0.983682 19.7938 0.983682V0.983682ZM0.9825 6.358C0.9825 6.12795 1.03542 5.91003 1.12961 5.71578L6.47808 11.0707L0.9825 16.5728V6.358ZM0.9825 31.1172V23.0353L9.70546 14.3019L27.9742 32.5927H2.45625C1.64359 32.5927 0.9825 31.9307 0.9825 31.1172ZM31.0798 32.5927H29.3638L10.0528 13.2585C9.86096 13.0665 9.5499 13.0665 9.35812 13.2585L0.9825 21.6442V17.964L7.52019 11.4185C7.71204 11.2263 7.71204 10.9149 7.52019 10.7229L1.82784 5.02367C2.01858 4.93323 2.23159 4.88247 2.45625 4.88247H5.30308L19.489 19.0854C19.6821 19.2786 19.9958 19.2774 20.1872 19.0819L26.3992 12.7387C26.8438 12.2846 26.1425 11.596 25.6976 12.05L19.8329 18.0385L6.69259 4.88247H15.4606C15.5918 6.44135 16.2553 8.27093 16.8807 9.54815C18.2164 12.2758 19.2791 12.683 19.7938 12.683C21.0115 12.683 22.2151 10.5631 22.6761 9.65163C23.494 8.03459 24.019 6.29616 24.1285 4.88247H31.0798C31.5302 4.88247 31.9339 5.0861 32.2044 5.40592L27.6463 10.0602C27.2023 10.5137 27.9022 11.2039 28.3479 10.7489L32.5535 6.45453V10.2054L22.0985 21.0136C21.9119 21.2065 21.9143 21.5137 22.104 21.7036L32.3125 31.9244C32.049 32.3264 31.5949 32.5927 31.0798 32.5927V32.5927Z" fill="white"/>
<path id="Vector_2" d="M19.7939 6.76749C21.0587 6.76749 22.0877 5.73522 22.0877 4.46627C22.0877 3.19732 21.0587 2.16504 19.7939 2.16504C18.529 2.16504 17.5 3.19732 17.5 4.46627C17.5 5.73522 18.5291 6.76749 19.7939 6.76749ZM19.7939 3.14879C20.5169 3.14879 21.1052 3.73985 21.1052 4.46633C21.1052 5.19281 20.517 5.78388 19.7939 5.78388C19.0708 5.78388 18.4825 5.19281 18.4825 4.46633C18.4825 3.73985 19.0708 3.14879 19.7939 3.14879V3.14879Z" fill="white"/>
<path id="Vector_3" d="M13.7805 21.2304C13.4971 20.6612 12.6178 21.1003 12.9013 21.6694C13.1346 22.1379 13.253 22.6415 13.253 23.1666C13.253 24.4922 12.7286 26.3525 11.8843 28.0216C11.015 29.7405 10.1881 30.5137 9.87853 30.5137C9.5826 30.5137 8.76948 29.8121 7.84757 27.9295C7.0315 26.263 6.50416 24.3934 6.50416 23.1666C6.50416 21.3092 8.01787 19.7981 9.87853 19.7981C10.3693 19.7981 10.8435 19.9018 11.2881 20.1062C11.8653 20.3717 12.2754 19.4777 11.6982 19.2123C11.124 18.9483 10.5118 18.8145 9.87859 18.8145C7.47618 18.8145 5.52173 20.7668 5.52173 23.1666C5.52173 24.8238 6.26751 26.9372 6.96548 28.3625C8.30116 31.0901 9.36396 31.4973 9.87859 31.4973C11.0962 31.4973 12.2999 29.3774 12.7609 28.466C13.6842 26.6404 14.2355 24.6593 14.2355 23.1665C14.2354 22.4879 14.0824 21.8365 13.7805 21.2304V21.2304Z" fill="white"/>
<path id="Vector_4" d="M9.87853 20.9795C8.61372 20.9795 7.58472 22.0118 7.58472 23.2807C7.58472 24.5497 8.61372 25.5819 9.87853 25.5819C11.1433 25.5819 12.1723 24.5497 12.1723 23.2807C12.1723 22.0118 11.1433 20.9795 9.87853 20.9795ZM9.87853 24.5983C9.15547 24.5983 8.56722 24.0072 8.56722 23.2807C8.56722 22.5542 9.15547 21.9632 9.87853 21.9632C10.6016 21.9632 11.1898 22.5542 11.1898 23.2807C11.1898 24.0072 10.6016 24.5983 9.87853 24.5983Z" fill="white"/>
</g>
</g>
<defs>
<filter id="filter0_d_22_521" x="-4" y="0" width="41.5359" height="41.5762" filterUnits="userSpaceOnUse" color-interpolation-filters="sRGB">
<feFlood flood-opacity="0" result="BackgroundImageFix"/>
<feColorMatrix in="SourceAlpha" type="matrix" values="0 0 0 0 0 0 0 0 0 0 0 0 0 0 0 0 0 0 127 0" result="hardAlpha"/>
<feOffset dy="4"/>
<feGaussianBlur stdDeviation="2"/>
<feComposite in2="hardAlpha" operator="out"/>
<feColorMatrix type="matrix" values="0 0 0 0 0 0 0 0 0 0 0 0 0 0 0 0 0 0 0.25 0"/>
<feBlend mode="normal" in2="BackgroundImageFix" result="effect1_dropShadow_22_521"/>
<feBlend mode="normal" in="SourceGraphic" in2="effect1_dropShadow_22_521" result="shape"/>
</filter>
<clipPath id="clip0_22_521">
<rect width="33.536" height="33.5764" fill="white"/>
</clipPath>
</defs>
</svg>
