<svg width="22" height="30" viewBox="0 0 22 30" fill="none" xmlns="http://www.w3.org/2000/svg">
<path d="M12.0125 0.516875C11.7775 0.1925 11.4006 0 11 0C10.5994 0 10.2225 0.1925 9.9875 0.516875C9.00375 1.87562 0.375 13.9487 0.375 19.375C0.375 25.2337 5.14125 30 11 30C16.8588 30 21.625 25.2337 21.625 19.375C21.625 13.9487 12.9963 1.87562 12.0125 0.516875ZM11 27.5C6.52 27.5 2.875 23.855 2.875 19.375C2.875 15.9087 8.05188 7.69 11 3.41875C13.9481 7.69 19.125 15.9087 19.125 19.375C19.125 23.855 15.48 27.5 11 27.5Z" fill="white"/>
</svg>
