<?xml version="1.0" encoding="UTF-8" standalone="no"?>
<!-- Created with Inkscape (http://www.inkscape.org/) -->

<svg
   width="2.3403549mm"
   height="7.9375mm"
   viewBox="0 0 2.3403549 7.9375001"
   version="1.1"
   id="svg311"
   inkscape:export-filename="image.svg"
   inkscape:export-xdpi="96"
   inkscape:export-ydpi="96"
   inkscape:version="1.2 (dc2aedaf03, 2022-05-15)"
   sodipodi:docname="image.svg"
   xmlns:inkscape="http://www.inkscape.org/namespaces/inkscape"
   xmlns:sodipodi="http://sodipodi.sourceforge.net/DTD/sodipodi-0.dtd"
   xmlns="http://www.w3.org/2000/svg"
   xmlns:svg="http://www.w3.org/2000/svg">
  <sodipodi:namedview
     id="namedview313"
     pagecolor="#ffffff"
     bordercolor="#000000"
     borderopacity="0.25"
     inkscape:showpageshadow="2"
     inkscape:pageopacity="0.0"
     inkscape:pagecheckerboard="0"
     inkscape:deskcolor="#d1d1d1"
     inkscape:document-units="mm"
     showgrid="false"
     inkscape:zoom="3.2705871"
     inkscape:cx="320.27889"
     inkscape:cy="473.30952"
     inkscape:window-width="1600"
     inkscape:window-height="829"
     inkscape:window-x="-8"
     inkscape:window-y="-8"
     inkscape:window-maximized="1"
     inkscape:current-layer="layer1" />
  <defs
     id="defs308" />
  <g
     inkscape:label="Calque 1"
     inkscape:groupmode="layer"
     id="layer1"
     transform="translate(-86.252165,-108.60752)">
    <g
       transform="matrix(6.2018504e-4,0,0,-6.2018504e-4,85.438879,116.54575)"
       fill="#000000"
       stroke="none"
       id="g8"
       inkscape:export-filename="g8.svg"
       inkscape:export-xdpi="96"
       inkscape:export-ydpi="96"
       style="fill:#f9f9f9">
      <path
         d="m 3033,12785 c -93,-17 -162,-40 -248,-83 -255,-127 -432,-345 -507,-623 l -23,-84 -5,-4232 -5,-4232 -85,-56 c -437,-292 -714,-707 -821,-1233 -27,-130 -36,-423 -19,-570 94,-797 686,-1452 1471,-1626 990,-219 1982,385 2238,1365 50,191 56,247 56,489 0,239 -8,301 -61,499 -91,337 -299,673 -560,903 -85,76 -213,171 -281,209 l -43,24 v 518 517 h 325 325 v 120 120 h -325 -325 v 765 765 h 325 325 v 120 120 h -325 -325 v 765 765 h 325 325 v 120 120 l -322,2 -323,3 -3,763 -2,762 h 325 325 v 125 125 h -325 -325 v 913 c 0,850 -2,918 -19,1002 -38,186 -127,345 -270,485 -219,213 -524,309 -818,255 z m 340,-349 c 189,-60 340,-209 405,-400 l 27,-81 3,-4312 2,-4312 118,-69 c 310,-184 502,-381 646,-664 254,-498 227,-1079 -72,-1543 -228,-355 -580,-595 -1005,-687 -150,-32 -446,-32 -600,0 -484,102 -870,399 -1092,841 -210,419 -208,947 5,1372 142,285 353,504 654,680 l 126,73 v 4266 c 0,2729 4,4289 10,4333 21,140 75,249 178,352 67,67 179,133 262,153 25,6 54,14 65,16 38,9 220,-3 268,-18 z"
         id="path4"
         style="fill:#f9f9f9" />
      <path
         d="M 2830,5136 V 3183 l -77,-28 c -436,-154 -766,-531 -864,-985 -33,-153 -33,-402 -1,-549 122,-545 540,-950 1082,-1047 125,-22 335,-22 460,0 418,75 778,343 967,721 54,107 87,200 114,326 33,148 33,397 0,549 -98,454 -428,831 -863,985 l -78,28 v 1953 1954 h -370 -370 z"
         id="path6"
         style="fill:#f9f9f9" />
    </g>
  </g>
</svg>
