<svg width="30" height="30" viewBox="0 0 30 30" fill="none" xmlns="http://www.w3.org/2000/svg">
<g clip-path="url(#clip0_22_301)">
<g filter="url(#filter0_d_22_301)">
<path d="M2.12772 16.4507H23.5592C26.6664 16.4507 29.1941 13.9228 29.1941 10.8158C29.1941 7.71328 26.6737 5.18833 23.5727 5.18097C23.2672 5.17637 21.2837 5.20382 19.8025 6.64798C18.8101 7.61548 18.3071 8.9449 18.3071 10.5991C18.3071 11.3296 18.8991 11.9217 19.6296 11.9217C20.3601 11.9217 20.9521 11.3295 20.9521 10.5991C20.9521 9.69313 21.1823 9.00519 21.6362 8.55455C22.3435 7.8521 23.4438 7.82681 23.5317 7.82593C23.5441 7.82632 23.5425 7.82612 23.5592 7.82612C25.2078 7.82612 26.549 9.1673 26.549 10.8158C26.549 12.4644 25.2079 13.8055 23.5592 13.8055H2.12772C1.39728 13.8055 0.805176 14.3977 0.805176 15.1281C0.805176 15.8585 1.39728 16.4507 2.12772 16.4507Z" fill="white"/>
<path d="M2.12772 11.27H12.3431C15.4501 11.27 17.9779 8.74214 17.9779 5.63508C17.9779 2.53239 15.4575 0.0073367 12.3564 0.000277874C12.0473 -0.00403585 10.0669 0.0235132 8.58611 1.46729C7.59385 2.43489 7.09071 3.7643 7.09071 5.41851C7.09071 6.14895 7.68277 6.74116 8.41326 6.74116C9.14375 6.74116 9.73571 6.149 9.73571 5.41851C9.73571 4.51253 9.96596 3.82459 10.4198 3.37395C11.127 2.6716 12.2273 2.64611 12.3156 2.64523C12.3279 2.64562 12.3263 2.64542 12.343 2.64542C13.9915 2.64542 15.3328 3.9866 15.3328 5.63508C15.3328 7.28366 13.9916 8.62484 12.343 8.62484H2.12772C1.39728 8.62484 0.805176 9.21699 0.805176 9.94748C0.805176 10.678 1.39728 11.27 2.12772 11.27Z" fill="white"/>
<path d="M23.5592 18.73H2.12772C1.39728 18.73 0.805176 19.3221 0.805176 20.0525C0.805176 20.7829 1.39723 21.3751 2.12772 21.3751H23.5592C25.2078 21.3751 26.5491 22.7163 26.5491 24.3647C26.5491 26.0133 25.2079 27.3545 23.5592 27.3545C23.5426 27.3545 23.5441 27.3542 23.5318 27.3547C23.4437 27.3538 22.3434 27.3284 21.6362 26.6261C21.1824 26.1754 20.9521 25.4875 20.9521 24.5814C20.9521 23.851 20.3601 23.2588 19.6297 23.2588C18.8992 23.2588 18.3071 23.8509 18.3071 24.5814C18.3071 26.2357 18.8102 27.5651 19.8025 28.5326C21.224 29.9188 23.1068 30 23.5277 29.9999C23.5454 29.9999 23.5604 29.9998 23.5728 29.9996C26.6738 29.9923 29.1942 27.4673 29.1942 24.3648C29.1942 21.2577 26.6664 18.73 23.5592 18.73Z" fill="white"/>
</g>
</g>
<defs>
<filter id="filter0_d_22_301" x="-3.19482" y="0" width="36.3892" height="38" filterUnits="userSpaceOnUse" color-interpolation-filters="sRGB">
<feFlood flood-opacity="0" result="BackgroundImageFix"/>
<feColorMatrix in="SourceAlpha" type="matrix" values="0 0 0 0 0 0 0 0 0 0 0 0 0 0 0 0 0 0 127 0" result="hardAlpha"/>
<feOffset dy="4"/>
<feGaussianBlur stdDeviation="2"/>
<feComposite in2="hardAlpha" operator="out"/>
<feColorMatrix type="matrix" values="0 0 0 0 0 0 0 0 0 0 0 0 0 0 0 0 0 0 0.25 0"/>
<feBlend mode="normal" in2="BackgroundImageFix" result="effect1_dropShadow_22_301"/>
<feBlend mode="normal" in="SourceGraphic" in2="effect1_dropShadow_22_301" result="shape"/>
</filter>
<clipPath id="clip0_22_301">
<rect width="30" height="30" fill="white"/>
</clipPath>
</defs>
</svg>
